<?xml version="1.0" encoding="UTF-8"?>
<svg version="1.1" viewBox="0 0 2080 1284" width="520" height="321" xmlns="http://www.w3.org/2000/svg">
<path transform="translate(292,220)" d="m0 0h187l9 2 9 6 6 8 3 11v76l8-7 95-95 2-1h105l2 1 1 4v79l-1 24-5 5-2 3h-2l-2 4h-2l-2 4-68 68h-2l-2 4-15 14-1 1 73 1 12 2 9 6 6 8 3 9 1 60v110l-1 19-64 64-5 6h-2v2h-2v2h-2l-2 4-8 7-21 21h-3l-1-191-5-10-1-3-4-2-10-4-5-1h-79l-2 4-89 89-5 4-6 7-4 2-1-1-1-84-4-10-8-7-8-3-6-1-78-1 1-4 10-9 93-93v-85l-5-10-1-3-4-2-9-4-6-1-187-1 3-5 8-7 95-95zm214 108-92 92-8 7-4 5 78 1 10 3 9 7 4 7 2 9v77l4-2 100-100v-86l-4-8-4-5-8-5-7-2z" fill="#fff"/>
<path transform="translate(1161,580)" d="m0 0h12l15 2 12 5 11 8 8 9 3 6 2 1-1-7v-20l1-2h37l1 1 1 50v92l-1 21-3 19-5 15-6 12-6 8h-2l-2 4h-2v2l-13 9-11 5-14 4-22 3-24-2-16-4-14-6-11-8-13-13-5-8 3-3 11-6 16-9 5-2 9 11 7 6 10 5 13 3h17l14-4 9-6 8-9 5-13 2-12 1-17v-7l-4 4-7 9-10 8-14 7-14 3-12 1-17-3-12-4-14-9-11-11-8-13-5-12-3-12-2-17v-10l2-17 4-16 8-16 9-12 7-7 14-9 10-4 8-2zm11 31-12 3-8 4-10 9-8 14-3 11-1 6v18l3 15 7 14 5 6 11 7 9 3 6 1h13l11-2 12-6 6-5 7-11 4-10 2-13v-17l-3-15-7-14-9-10-10-5-11-3z" fill="#fff"/>
<path transform="translate(1309,268)" d="m0 0h15l12 2 10 4 10 7 8 9 5 11 1 5h2l2-5 9-13 7-7 13-8 12-4 7-1h16l14 3 12 6 10 10 8 13 5 15 1 6 1 119-1 2h-37l-1-7-1-102-3-13-5-9-7-6-9-3-5-1h-10l-13 4-7 5-7 11-4 10-2 9-1 13v87l-1 2h-38l-1-2-1-110-4-13-5-8-8-5-11-3h-11l-10 3-9 6-1 2h-2l-2 5-5 10-3 11-1 7-1 18v77l-1 2h-37l-1-2v-167l2-2h35l2 5v28l8-13 9-10 10-7 9-4z" fill="#fff"/>
<path transform="translate(823,531)" d="m0 0h106l20 2 16 5 11 6 10 8 8 10 5 12 3 16v9l-3 15-4 9-7 10-5 5-8 7-14 7-10 2v2l6 1 12 6 9 8 8 13 7 19 14 49-1 1h-40l-2-2-10-39-7-21-6-9v-2l-14-7-10-2-15-1-42-1 1 4v78l-1 2h-37l-1-1v-220zm38 34-1 2v74h61l15-3 12-6 8-7 5-9 2-7v-15l-5-13-4-5-10-6-12-4-9-1z" fill="#fff"/>
<path transform="translate(824,220)" d="m0 0 36 1v93h107v-91l1-3 38 1 1 4v216l-1 1h-38l-1-2v-95l-106 1v94l-1 2h-37l-1-9v-212z" fill="#fff"/>
<path transform="translate(1292,518)" d="m0 0h33l3 1 1 5v92l8-13 9-10 14-9 13-4 7-1h16l15 3 12 6 9 7 9 13 5 11 3 12 1 7 1 114-1 1h-38l-1-1-1-108-4-13-6-9-8-6-13-4h-12l-12 3-11 8-7 10-4 9-3 16-1 13v80l-1 2h-37l-1-1v-233z" fill="#fff"/>
<path transform="translate(1586,268)" d="m0 0h20l14 2 12 4 11 6 9 8 7 11 4 10 2 12 1 79 3 11 12 3 12-2 1 1 1 17-1 8-5 3-11 3h-23l-11-4-8-7-5-9-3-15-10 13-7 7-10 7-12 5-11 3-7 1h-16l-16-3-14-7-8-8-6-12-2-9v-9l4-16 8-11 10-8 14-7 25-7 35-8 13-5 6-4 3-5v-10l-4-7-6-5-8-3-6-1h-16l-12 3-8 4-6 5-6 8-7 13-6-1-28-9 1-6 8-14 9-11 10-9 10-6 13-5 11-3zm42 86-11 5-24 7-20 5-13 5-7 6-4 8-1 8 4 9 6 5 8 3h21l14-5 11-8 8-9 6-12 3-12 1-15z" fill="#fff"/>
<path transform="translate(824,842)" d="m0 0h152l2 1 1 33-1 1-116 1-1 9-1 58h100l2 1 1 26-1 3-101 1-1 87h-37l-1-5v-215z" fill="#fff"/>
<path transform="translate(1799,268)" d="m0 0h19l11 2 10 4 9 6 8 7 9 14 5 14 2 14 1 111-1 2h-38l-1-1-1-106-3-12-6-11-8-6-10-4-7-1h-9l-9 2-10 5-7 7-6 10-5 17-1 25v73l-1 2-5 1h-30l-4-2v-168l2-2h36l2 5-1 26h3l2-5 8-10 10-9 11-6 9-3zm-49 35 1 2z" fill="#fff"/>
<path transform="translate(1037,271)" d="m0 0h14l23 1 1 4v95l2 16 6 12 5 6 10 5 15 2 12-2 9-5 6-5 7-11 4-12 2-14 1-90 1-2h36l2 3v166l-1 2h-37l-1-8v-26l-7 12-11 12-10 7-14 5-6 1h-21l-15-4-10-6-8-7-7-10-5-10-4-18-1-10v-107z" fill="#fff"/>
<path transform="translate(1661,578)" d="m0 0h17l16 2 15 4 16 8 11 8 10 9 2 2v5l-11 9-10 9-4 3h-2v2h-2l-8-10-10-8-12-6-14-3h-16l-9 2-7 4h-2l-2 4-3 8 1 8 4 5 9 4 24 5 29 5 16 5 11 6 8 7 5 9 3 11v12l-3 13-6 11-9 10-10 7-12 5-15 3h-30l-18-3-19-7-13-8-11-9-4-5 1-5 13-13 8-7 3-4 4 2 5 7 2 1v2l4 2 9 6 11 5 9 2h25l10-4 6-4 4-7v-10l-3-5-12-6-25-5-23-4-15-4-16-8-6-5-6-9-3-11v-15l4-13 5-9 8-9 14-9 14-5z" fill="#fff"/>
<path transform="translate(1241,889)" d="m0 0h21l21 3 12 4 17 9 11 9 7 7 2 5-15 13-12 10-4-1-10-11-10-7-11-5-11-2h-16l-10 2-9 5-4 8-1 7 3 7 8 5 17 4 40 7 15 5 11 6 7 6 6 9 3 12v12l-2 10-4 10-7 9-10 9-12 6-13 4-6 1h-32l-16-3-12-4-16-8-11-8-9-9 1-5 15-15 8-7 4-1 5 6v2l4 2 7 6 14 7 12 3h24l10-4 6-4 4-8v-9l-3-5-12-6-18-4-30-5-20-6-11-6-5-4-7-11-3-11v-12l3-12 6-12 9-10 11-7 9-4 12-3z" fill="#fff"/>
<path transform="translate(1530,518)" d="m0 0h2l1 64h46l1 4v26l-1 2-46 1v85l3 12 5 6 7 3 10 1 13-2 8-2 1 5v22l-2 5-8 3-16 3h-14l-12-2-10-4-8-6-8-11-4-11-2-12-1-17v-79l-33 1-5-1v-31l1-1h38v-42l8-6 14-8z" fill="#fff"/>
<path transform="translate(1416,829)" d="m0 0h2v64h44l4 1 1 30-1 1-46 1-1 4v74l1 13 4 8 5 5 5 2h20l10-4h2l1 29-5 5-14 4-8 1h-13l-13-2-9-4-8-6-7-8-5-11-3-14v-97l-5 1-33-1-1-1v-29l1-2h38v-42l5-4 17-10z" fill="#fff"/>
<path transform="translate(1145,890)" d="m0 0 16 1 11 3 7 3 1 3-10 32-6-1-11-4-7-1h-11l-10 3-6 5h-2l-2 4-6 11-3 12-1 9v90l-1 3h-38l-1-1v-168l1-1h37l1 1 1 29 8-15 8-9 8-5z" fill="#fff"/>
<path transform="translate(1031,582)" d="m0 0h36l1 1 1 169-1 1h-38l-1-1v-169z" fill="#fff"/>
<path transform="translate(1e3 893)" d="m0 0h35l2 6v161l-1 3h-37l-1-2v-166z" fill="#fff"/>
<path transform="translate(1045,511)" d="m0 0h9l9 3 8 7 4 11v7l-3 10-7 8-8 3h-16l-8-4-6-7-3-12 2-11 4-7 7-6z" fill="#fff"/>
<path transform="translate(1014,822)" d="m0 0h9l9 3 6 5 5 10 1 8-2 8-5 9-7 5-3 1h-17l-8-4-6-7-3-8v-9l3-10 5-6 8-4z" fill="#fff"/>
<path transform="translate(1263,299)" d="m0 0" fill="#fff"/>
</svg>
